<svg xmlns="http://www.w3.org/2000/svg" viewBox="0 0 283.47 73.35"><defs><style>.cls-1{fill:#00677d;}.cls-2{fill:#10bed2;}</style></defs><title>elekta-logo</title><g id="Ebene_2" data-name="Ebene 2"><g id="Layer_1" data-name="Layer 1"><path class="cls-1" d="M70.23,21.74A36.71,36.71,0,1,1,36.67,0,37.55,37.55,0,0,1,51.53,3L46.1,8.63A31.33,31.33,0,0,0,36.67,7,29.64,29.64,0,1,0,66.32,36.75a29.32,29.32,0,0,0-1.59-9.49Z"/><path class="cls-1" d="M84.37,9.64h32.11v6.81H92.27V32h22v6.81h-22V56.46h25.87v6.81H84.37Z"/><path class="cls-1" d="M133.29,9.64V63.27h-7.54V9.64Z"/><path class="cls-1" d="M140.68,45.08c0-10.87,8-19.06,18.19-19.06,10.8,0,17.47,8.84,17.47,18.92a19.13,19.13,0,0,1-.07,2H148.15c.72,6.89,5.58,11.09,12.39,11.09a16.26,16.26,0,0,0,10.94-4.64l3.84,4.64a21.6,21.6,0,0,1-15.08,6C148.66,64.07,140.68,56.24,140.68,45.08Zm7.83-3.62h19.64c-.15-5.36-3.91-9.42-9.5-9.42S149.23,36,148.51,41.46Z"/><path class="cls-1" d="M208.23,63.27,191,44.65V63.27h-7.54V9.64H191v32l14.57-14.71H215L198.81,42.54l19.93,20.73Z"/><path class="cls-1" d="M221.21,48.05V15.44h7.54V26.89H241.5v6.23H228.75V49.29c0,5.15,2.68,8.12,7.47,8.12a15.18,15.18,0,0,0,5.94-1.16l2.17,6.45a27.74,27.74,0,0,1-8.26,1.38C225,64.07,221.21,57.84,221.21,48.05Z"/><path class="cls-1" d="M246.5,45.08c0-11.67,8.41-19.06,17.83-19.06a15.76,15.76,0,0,1,12,5.36V26.89h7.1V63.27h-7.1V58.85a14.42,14.42,0,0,1-11.67,5.22C254.18,64.07,246.5,56.53,246.5,45.08Zm7.54,0c0,7.61,4.93,12.76,11.38,12.76a12.68,12.68,0,0,0,10.51-5.58v-14a13,13,0,0,0-10.73-6C258.24,32.25,254,38.2,254,45.08Z"/><path class="cls-2" d="M36.67,34.36a2.31,2.31,0,0,0-2.32,2.39,2.32,2.32,0,0,0,4.64,0A2.31,2.31,0,0,0,36.67,34.36Z"/><path class="cls-2" d="M45.3,23.41A4.67,4.67,0,1,0,49.94,28,4.67,4.67,0,0,0,45.3,23.41Z"/><path class="cls-2" d="M58.05,7.18a8.15,8.15,0,1,0,8.12,8.12A8.17,8.17,0,0,0,58.05,7.18Z"/></g></g></svg>